<svg xmlns="http://www.w3.org/2000/svg" width="2048" height="1120" viewBox="0 0 2048 1120">
  <rect width="2048" height="1120" fill="#ffffff"/>
  <style>
    .title{font:700 26px Arial,sans-serif;fill:#111827}
    .sub{font:400 20px Arial,sans-serif;fill:#737373}
    .label{font:400 16px Arial,sans-serif;fill:#737373}
    .num{font:700 28px Arial,sans-serif;fill:#111827}
    .head{font:700 15px Arial,sans-serif;fill:#737373}
    .name{font:700 18px Arial,sans-serif;fill:#111827}
    .small{font:400 15px Arial,sans-serif;fill:#737373}
    .cell{font:500 17px Arial,sans-serif;fill:#111827}
    .pill{font:700 14px Arial,sans-serif}
  </style>

  <rect x="22" y="16" width="2004" height="1048" rx="16" fill="#fff" stroke="#e5e7eb"/>
  <text x="54" y="70" class="title">Pilotage equipe</text>
  <text x="54" y="104" class="sub">Vue compacte pour 10 collaborateurs, retards et prochaines echeances</text>
  <rect x="1818" y="48" width="122" height="34" rx="17" fill="#f3f4f6"/>
  <text x="1846" y="70" class="small">Direction</text>

  <g transform="translate(54,142)">
    <rect width="1940" height="112" fill="#fff"/>
    <path d="M0 0h1940M0 112h1940M388 0v112M776 0v112M1164 0v112M1552 0v112" stroke="#e5e7eb"/>
    <g transform="translate(28,22)">
      <rect width="48" height="48" rx="10" fill="#f1f5f9"/><text x="98" y="23" class="num">10</text><text x="98" y="54" class="label">Collaborateurs</text>
    </g>
    <g transform="translate(416,22)">
      <rect width="48" height="48" rx="10" fill="#eff6ff"/><text x="98" y="23" class="num">38</text><text x="98" y="54" class="label">Ouvertes</text>
    </g>
    <g transform="translate(804,22)">
      <rect width="48" height="48" rx="10" fill="#fef2f2"/><text x="98" y="23" class="num">9</text><text x="98" y="54" class="label">En retard</text>
    </g>
    <g transform="translate(1192,22)">
      <rect width="48" height="48" rx="10" fill="#f5f3ff"/><text x="98" y="23" class="num">3</text><text x="98" y="54" class="label">Non assignees</text>
    </g>
    <g transform="translate(1580,22)">
      <rect width="48" height="48" rx="10" fill="#fffbeb"/><text x="98" y="23" class="num">7</text><text x="98" y="54" class="label">Aujourd'hui</text>
    </g>
  </g>

  <g transform="translate(54,254)">
    <rect width="1940" height="56" fill="#f9fafb"/>
    <text x="24" y="36" class="head">Collaborateur</text>
    <text x="500" y="36" class="head">Statut</text>
    <text x="812" y="36" class="head">Ouvertes</text>
    <text x="1000" y="36" class="head">Retard</text>
    <text x="1168" y="36" class="head">Ajd.</text>
    <text x="1324" y="36" class="head">Demain</text>
    <text x="1468" y="36" class="head">Prochaine echeance</text>
    <text x="1846" y="36" class="head">Terminees</text>

    <g transform="translate(0,56)">
      <rect width="1940" height="64" fill="#fef2f2"/>
      <circle cx="42" cy="32" r="18" fill="#fee2e2"/><text x="30" y="38" class="pill" fill="#dc2626">BC</text>
      <text x="76" y="26" class="name">Bastien Collet</text><text x="76" y="48" class="small">8 taches ouvertes</text>
      <rect x="500" y="18" width="86" height="28" rx="14" fill="#fee2e2"/><text x="518" y="37" class="pill" fill="#dc2626">Priorite</text>
      <text x="846" y="38" class="cell">8</text><text x="1028" y="38" class="cell" fill="#dc2626">3</text><text x="1186" y="38" class="cell">2</text><text x="1354" y="38" class="cell">1</text>
      <text x="1468" y="26" class="name">Relancer entreprise</text><text x="1468" y="48" class="small" fill="#dc2626">Hier</text><text x="1898" y="38" class="cell">4</text>
    </g>

    <g transform="translate(0,120)">
      <rect width="1940" height="64" fill="#fff"/>
      <circle cx="42" cy="32" r="18" fill="#dbeafe"/><text x="29" y="38" class="pill" fill="#2563eb">MD</text>
      <text x="76" y="26" class="name">Marie Dubois</text><text x="76" y="48" class="small">6 taches ouvertes</text>
      <rect x="500" y="18" width="112" height="28" rx="14" fill="#fef3c7"/><text x="518" y="37" class="pill" fill="#b45309">Aujourd'hui</text>
      <text x="846" y="38" class="cell">6</text><text x="1028" y="38" class="cell">0</text><text x="1186" y="38" class="cell">3</text><text x="1354" y="38" class="cell">0</text>
      <text x="1468" y="26" class="name">Envoyer CV candidat</text><text x="1468" y="48" class="small">Aujourd'hui</text><text x="1898" y="38" class="cell">9</text>
    </g>

    <g transform="translate(0,184)">
      <rect width="1940" height="64" fill="#fef2f2"/>
      <circle cx="42" cy="32" r="18" fill="#fee2e2"/><text x="30" y="38" class="pill" fill="#dc2626">AL</text>
      <text x="76" y="26" class="name">Antoine Leroy</text><text x="76" y="48" class="small">5 taches ouvertes</text>
      <rect x="500" y="18" width="86" height="28" rx="14" fill="#fee2e2"/><text x="518" y="37" class="pill" fill="#dc2626">Priorite</text>
      <text x="846" y="38" class="cell">5</text><text x="1028" y="38" class="cell" fill="#dc2626">2</text><text x="1186" y="38" class="cell">0</text><text x="1354" y="38" class="cell">2</text>
      <text x="1468" y="26" class="name">Planifier entretien</text><text x="1468" y="48" class="small" fill="#dc2626">29 juin</text><text x="1898" y="38" class="cell">6</text>
    </g>

    <g transform="translate(0,248)">
      <rect width="1940" height="64" fill="#fff"/>
      <circle cx="42" cy="32" r="18" fill="#e0e7ff"/><text x="30" y="38" class="pill" fill="#4f46e5">PR</text>
      <text x="76" y="26" class="name">Pauline Robert</text><text x="76" y="48" class="small">4 taches ouvertes</text>
      <rect x="500" y="18" width="86" height="28" rx="14" fill="#dbeafe"/><text x="518" y="37" class="pill" fill="#2563eb">En cours</text>
      <text x="846" y="38" class="cell">4</text><text x="1028" y="38" class="cell">0</text><text x="1186" y="38" class="cell">1</text><text x="1354" y="38" class="cell">1</text>
      <text x="1468" y="26" class="name">Point candidat</text><text x="1468" y="48" class="small">2 juil.</text><text x="1898" y="38" class="cell">3</text>
    </g>

    <g transform="translate(0,312)">
      <rect width="1940" height="64" fill="#fff"/>
      <circle cx="42" cy="32" r="18" fill="#e0f2fe"/><text x="30" y="38" class="pill" fill="#0369a1">JL</text>
      <text x="76" y="26" class="name">Julien Lambert</text><text x="76" y="48" class="small">4 taches ouvertes</text>
      <rect x="500" y="18" width="86" height="28" rx="14" fill="#dbeafe"/><text x="518" y="37" class="pill" fill="#2563eb">En cours</text>
      <text x="846" y="38" class="cell">4</text><text x="1028" y="38" class="cell">0</text><text x="1186" y="38" class="cell">0</text><text x="1354" y="38" class="cell">2</text>
      <text x="1468" y="26" class="name">Controle dossier</text><text x="1468" y="48" class="small">3 juil.</text><text x="1898" y="38" class="cell">7</text>
    </g>

    <g transform="translate(0,376)">
      <rect width="1940" height="64" fill="#fef2f2"/>
      <circle cx="42" cy="32" r="18" fill="#fee2e2"/><text x="30" y="38" class="pill" fill="#dc2626">NA</text>
      <text x="76" y="26" class="name">Non assignees</text><text x="76" y="48" class="small">3 taches ouvertes</text>
      <rect x="500" y="18" width="86" height="28" rx="14" fill="#fee2e2"/><text x="518" y="37" class="pill" fill="#dc2626">Priorite</text>
      <text x="846" y="38" class="cell">3</text><text x="1028" y="38" class="cell" fill="#dc2626">2</text><text x="1186" y="38" class="cell">0</text><text x="1354" y="38" class="cell">0</text>
      <text x="1468" y="26" class="name">Tache a attribuer</text><text x="1468" y="48" class="small" fill="#dc2626">30 juin</text><text x="1898" y="38" class="cell">0</text>
    </g>

    <g transform="translate(0,440)">
      <rect width="1940" height="64" fill="#fff"/>
      <circle cx="42" cy="32" r="18" fill="#ede9fe"/><text x="30" y="38" class="pill" fill="#7c3aed">SL</text>
      <text x="76" y="26" class="name">Sarah Leroy</text><text x="76" y="48" class="small">3 taches ouvertes</text>
      <rect x="500" y="18" width="86" height="28" rx="14" fill="#dbeafe"/><text x="518" y="37" class="pill" fill="#2563eb">En cours</text>
      <text x="846" y="38" class="cell">3</text><text x="1028" y="38" class="cell">0</text><text x="1186" y="38" class="cell">0</text><text x="1354" y="38" class="cell">1</text>
      <text x="1468" y="26" class="name">Mail entreprise</text><text x="1468" y="48" class="small">4 juil.</text><text x="1898" y="38" class="cell">5</text>
    </g>

    <g transform="translate(0,504)">
      <rect width="1940" height="64" fill="#fff"/>
      <circle cx="42" cy="32" r="18" fill="#dcfce7"/><text x="29" y="38" class="pill" fill="#047857">CM</text>
      <text x="76" y="26" class="name">Claire Martin</text><text x="76" y="48" class="small">2 taches ouvertes</text>
      <rect x="500" y="18" width="86" height="28" rx="14" fill="#dbeafe"/><text x="518" y="37" class="pill" fill="#2563eb">En cours</text>
      <text x="846" y="38" class="cell">2</text><text x="1028" y="38" class="cell">0</text><text x="1186" y="38" class="cell">1</text><text x="1354" y="38" class="cell">0</text>
      <text x="1468" y="26" class="name">Verifier documents</text><text x="1468" y="48" class="small">Aujourd'hui</text><text x="1898" y="38" class="cell">8</text>
    </g>

    <g transform="translate(0,568)">
      <rect width="1940" height="64" fill="#fef2f2"/>
      <circle cx="42" cy="32" r="18" fill="#fee2e2"/><text x="29" y="38" class="pill" fill="#dc2626">NB</text>
      <text x="76" y="26" class="name">Nadia Benali</text><text x="76" y="48" class="small">2 taches ouvertes</text>
      <rect x="500" y="18" width="86" height="28" rx="14" fill="#fee2e2"/><text x="518" y="37" class="pill" fill="#dc2626">Priorite</text>
      <text x="846" y="38" class="cell">2</text><text x="1028" y="38" class="cell" fill="#dc2626">1</text><text x="1186" y="38" class="cell">0</text><text x="1354" y="38" class="cell">0</text>
      <text x="1468" y="26" class="name">Relance candidat</text><text x="1468" y="48" class="small" fill="#dc2626">30 juin</text><text x="1898" y="38" class="cell">2</text>
    </g>

    <g transform="translate(0,632)">
      <rect width="1940" height="64" fill="#fff"/>
      <circle cx="42" cy="32" r="18" fill="#dcfce7"/><text x="30" y="38" class="pill" fill="#047857">EH</text>
      <text x="76" y="26" class="name">Emma Henry</text><text x="76" y="48" class="small">1 tache ouverte</text>
      <rect x="500" y="18" width="86" height="28" rx="14" fill="#dbeafe"/><text x="518" y="37" class="pill" fill="#2563eb">En cours</text>
      <text x="846" y="38" class="cell">1</text><text x="1028" y="38" class="cell">0</text><text x="1186" y="38" class="cell">0</text><text x="1354" y="38" class="cell">1</text>
      <text x="1468" y="26" class="name">Appel de suivi</text><text x="1468" y="48" class="small">Demain</text><text x="1898" y="38" class="cell">6</text>
    </g>

    <g transform="translate(0,696)">
      <rect width="1940" height="64" fill="#fff"/>
      <circle cx="42" cy="32" r="18" fill="#dcfce7"/><text x="30" y="38" class="pill" fill="#047857">TG</text>
      <text x="76" y="26" class="name">Thomas Garcia</text><text x="76" y="48" class="small">0 tache ouverte</text>
      <rect x="500" y="18" width="74" height="28" rx="14" fill="#dcfce7"/><text x="518" y="37" class="pill" fill="#047857">A jour</text>
      <text x="846" y="38" class="cell">0</text><text x="1028" y="38" class="cell">0</text><text x="1186" y="38" class="cell">0</text><text x="1354" y="38" class="cell">0</text>
      <text x="1468" y="38" class="small">Aucune echeance</text><text x="1898" y="38" class="cell">7</text>
    </g>

    <path d="M0 56h1940M0 120h1940M0 184h1940M0 248h1940M0 312h1940M0 376h1940M0 440h1940M0 504h1940M0 568h1940M0 632h1940M0 696h1940M0 760h1940" stroke="#e5e7eb"/>
  </g>
</svg>
